<?xml version="1.0" encoding="utf-8"?>
<!-- Generator: Adobe Illustrator 24.2.3, SVG Export Plug-In . SVG Version: 6.00 Build 0)  -->
<svg version="1.1" id="Слой_1" xmlns="http://www.w3.org/2000/svg" xmlns:xlink="http://www.w3.org/1999/xlink" x="0px" y="0px"
	 viewBox="0 0 512 512" style="enable-background:new 0 0 512 512;" xml:space="preserve">
<style type="text/css">
	.st0{fill:#FFF;stroke:#FFF;stroke-width:8;stroke-linecap:round;stroke-linejoin:round;}
	.st1{fill:#FFF;}
	.st2{fill:none;stroke:#FFF;stroke-width:8;stroke-miterlimit:10;}
	.st3{fill:#FFF;stroke:#FFF;stroke-width:8;stroke-miterlimit:10;}
</style>
<path class="st0" d="M118.43,447.55c-22.53-27.57-36.05-62.79-36.05-101.17c0-38.37,13.51-73.57,36.02-101.14
	C105.77,240.84,93.87,234.56,85,228c-14.74-10.91-23.63-24.44-50-39c-11.77-6.5-22.13-10.5-29-12.86c0,92.23,0,184.45,0,276.68
	c40.73,9.27,71.53,5.62,92.18,0.53C103.89,451.95,110.76,449.96,118.43,447.55z"/>
<path class="st0" d="M400,376c-0.92,6.2-2.45,13.32-5,21c-4.52,13.62-10.68,24.31-16,32c2.95,0.45,7.93,1.16,14.16,1.75
	c8.43,0.81,14.58,0.88,16.6,1.06c31.24,2.74,45.23,8.3,60.53,6.64c16.53-1.79,18.83-10.26,21.41-19.93
	c1.23-4.61,2.86-8.82,3.24-14.72c0.13-2.09,0.12-4.02-0.89-13.4c-1.11-10.27-1.7-15.38-2.17-16.38c-3.47-7.34-17.8-6.69-41.17-4.43
	C437.71,370.86,420.44,372.82,400,376z"/>
<path class="st1" d="M242.38,211.38c-18.07,0-35.31,3.56-51.06,10c-16.9,6.91-32.08,17.14-44.74,29.89
	c-24.23,24.4-39.2,58.01-39.2,95.11c0,35.85,13.98,68.44,36.78,92.61c24.62,26.1,59.51,42.39,98.22,42.39
	c46.76,0,87.97-23.78,112.2-59.9c9.67-14.42,16.64-30.82,20.17-48.45c0.46-2.3,0.86-4.61,1.2-6.95c0.94-6.43,1.43-13.01,1.43-19.7
	C377.38,271.82,316.94,211.38,242.38,211.38z M243,407c-33.14,0-60-26.86-60-60s26.86-60,60-60s60,26.86,60,60S276.14,407,243,407z"
	/>
<g>
	<path class="st1" d="M467,215c3.55-13.13,10.67-43.07,10.51-82.03c-0.04-10.69-2.56-37.34-2.56-37.34
		c-0.26-2.74-0.84-7.2-1.29-9.91c0,0-3.71-22.21-17.99-32.16c-3.49-2.44-7.02-4.08-10.27-5.19c-3.33-1.14-6.29-1.73-8.55-2.02
		c-28.96-1.97-60.06-2.84-93.03-2.06c-15.46,0.37-30.45,1.07-44.95,2.06c-4.24,0.65-10.79,2.18-17.77,6.18
		c-2.2,1.26-9.66,5.76-16.72,15.46c-7.62,10.47-8.27,18.05-11.5,25.76c-5.67,13.54-27.06,26.87-34.49,31.94
		c-19.14,13.06-21.37,37.07-22.9,60.66c-0.16,2.4,4.98,5.56,7.75,4.86c12.53-3.15,25.64-4.83,39.15-4.83
		c27.52,0,71.38,17.34,71.38,17.34c2.56,1.01,6.5,3.12,8.76,4.69c0,0,34.6,24.02,48.54,42.85c5.23,7.06,14.1,19.15,20.63,37.46
		c4.83,13.55,6.63,25.58,7.32,34.27c0.86,9.04,3.16,11.41,5,12c10.68,3.43,34.49-43.97,36-47c7.33-14.75,15.33-37.29,15.33-37.29
		c0.92-2.59,2.42-6.83,3.34-9.42C458.67,241.29,463.8,226.84,467,215z M434.06,140.96c-2.51,1.12-6.81,2.04-9.56,2.04h-105
		c-2.75,0-7.05-0.92-9.56-2.04c0,0-7.94-3.55-7.94-10.46s7.94-10.46,7.94-10.46c2.51-1.12,6.81-2.04,9.56-2.04h105
		c2.75,0,7.05,0.92,9.56,2.04c0,0,7.94,3.55,7.94,10.46S434.06,140.96,434.06,140.96z M434.06,98.96c-2.51,1.12-6.81,2.04-9.56,2.04
		h-105c-2.75,0-7.05-0.92-9.56-2.04c0,0-7.94-3.55-7.94-10.46s7.94-10.46,7.94-10.46c2.51-1.12,6.81-2.04,9.56-2.04h105
		c2.75,0,7.05,0.92,9.56,2.04c0,0,7.94,3.55,7.94,10.46S434.06,98.96,434.06,98.96z"/>
	<path class="st2" d="M467,215c3.55-13.13,10.67-43.07,10.51-82.03c-0.04-10.69-2.56-37.34-2.56-37.34
		c-0.26-2.74-0.84-7.2-1.29-9.91c0,0-3.71-22.21-17.99-32.16c-3.49-2.44-7.02-4.08-10.27-5.19c-3.33-1.14-6.29-1.73-8.55-2.02
		c-28.96-1.97-60.06-2.84-93.03-2.06c-15.46,0.37-30.45,1.07-44.95,2.06c-4.24,0.65-10.79,2.18-17.77,6.18
		c-2.2,1.26-9.66,5.76-16.72,15.46c-7.62,10.47-8.27,18.05-11.5,25.76c-5.67,13.54-27.06,26.87-34.49,31.94
		c-19.14,13.06-21.37,37.07-22.9,60.66c-0.16,2.4,4.98,5.56,7.75,4.86c12.53-3.15,25.64-4.83,39.15-4.83
		c27.52,0,71.38,17.34,71.38,17.34c2.56,1.01,6.5,3.12,8.76,4.69c0,0,34.6,24.02,48.54,42.85c5.23,7.06,14.1,19.15,20.63,37.46
		c4.83,13.55,6.63,25.58,7.32,34.27c0.86,9.04,3.16,11.41,5,12c10.68,3.43,34.49-43.97,36-47c7.33-14.75,15.33-37.29,15.33-37.29
		c0.92-2.59,2.42-6.83,3.34-9.42C458.67,241.29,463.8,226.84,467,215z M434.06,140.96c-2.51,1.12-6.81,2.04-9.56,2.04h-105
		c-2.75,0-7.05-0.92-9.56-2.04c0,0-7.94-3.55-7.94-10.46s7.94-10.46,7.94-10.46c2.51-1.12,6.81-2.04,9.56-2.04h105
		c2.75,0,7.05,0.92,9.56,2.04c0,0,7.94,3.55,7.94,10.46S434.06,140.96,434.06,140.96z M434.06,98.96c-2.51,1.12-6.81,2.04-9.56,2.04
		h-105c-2.75,0-7.05-0.92-9.56-2.04c0,0-7.94-3.55-7.94-10.46s7.94-10.46,7.94-10.46c2.51-1.12,6.81-2.04,9.56-2.04h105
		c2.75,0,7.05,0.92,9.56,2.04c0,0,7.94,3.55,7.94,10.46S434.06,98.96,434.06,98.96z"/>
</g>
<path class="st3" d="M195,193"/>
</svg>
