<?xml version="1.0" standalone="no"?>
<!DOCTYPE svg PUBLIC "-//W3C//DTD SVG 20010904//EN"
 "http://www.w3.org/TR/2001/REC-SVG-20010904/DTD/svg10.dtd">
<svg version="1.0" xmlns="http://www.w3.org/2000/svg"
 width="512.000000pt" height="512.000000pt" viewBox="0 0 512.000000 512.000000"
 preserveAspectRatio="xMidYMid meet">
<metadata>
Created by potrace 1.11, written by Peter Selinger 2001-2013
</metadata>
<g transform="translate(0.000000,512.000000) scale(0.100000,-0.100000)"
fill="#000000" stroke="none">
<path d="M3329 4716 c-2 -2 -78 -6 -169 -10 -91 -4 -194 -14 -229 -22 -92 -21
-176 -69 -251 -144 -77 -77 -118 -143 -161 -265 -17 -50 -40 -103 -52 -120
-34 -50 -125 -131 -243 -215 -127 -90 -180 -146 -218 -226 -32 -68 -63 -177
-72 -252 -3 -32 -9 -86 -14 -122 -9 -80 -5 -109 22 -137 28 -30 78 -38 142
-25 243 53 432 48 682 -18 109 -29 311 -95 369 -121 80 -35 317 -220 441 -343
142 -141 289 -389 329 -556 19 -80 37 -175 41 -220 13 -134 45 -190 108 -190
87 0 220 173 387 500 34 67 100 231 160 397 100 277 159 507 184 718 4 28 8
61 11 75 7 39 18 256 18 345 -1 78 -11 280 -18 340 -2 17 -7 59 -10 95 -9 82
-48 212 -83 276 -53 95 -175 191 -263 207 -79 15 -102 18 -170 23 -85 6 -936
15 -941 10z m972 -406 c19 -6 46 -21 59 -35 20 -21 22 -30 14 -52 -5 -14 -22
-35 -37 -47 -28 -21 -35 -21 -617 -21 -582 0 -589 0 -617 21 -15 12 -32 33
-38 48 -8 22 -5 31 17 52 14 14 41 30 59 34 51 12 1117 12 1160 0z m19 -428
c19 -9 41 -29 49 -44 14 -25 14 -29 -5 -55 -40 -53 -49 -54 -665 -51 -554 3
-568 3 -595 24 -44 32 -51 50 -34 82 9 15 31 35 50 44 31 16 85 17 599 17 514
0 569 -1 601 -17z"/>
<path d="M32 3388 c-18 -18 -17 -2812 0 -2825 7 -5 38 -15 68 -21 364 -75 682
-61 1027 44 113 34 116 42 48 138 -131 182 -211 349 -261 538 -64 247 -65 525
-3 770 54 216 133 375 307 617 18 26 -9 53 -83 82 -140 54 -253 127 -383 246
-212 194 -335 277 -555 371 -111 48 -148 57 -165 40z"/>
<path d="M2318 3005 c-2 -2 -28 -6 -58 -9 -75 -7 -193 -32 -265 -57 -123 -43
-293 -132 -375 -196 -290 -227 -455 -492 -525 -843 -12 -60 -17 -113 -19 -233
-15 -679 504 -1269 1189 -1353 101 -12 295 -7 385 11 47 9 96 19 110 21 14 3
59 17 100 31 415 142 739 481 862 903 10 36 21 81 24 100 3 19 7 41 10 49 8
23 18 152 18 221 -1 99 -13 218 -29 290 -8 36 -17 76 -21 90 -3 14 -21 66 -41
115 -175 441 -550 752 -1013 840 -74 15 -342 29 -352 20z m257 -774 c76 -18
188 -79 252 -135 68 -61 145 -176 167 -248 31 -104 34 -129 31 -210 -4 -102
-11 -138 -40 -210 -95 -235 -338 -390 -585 -374 -166 11 -278 63 -395 180
-118 119 -177 268 -171 436 4 102 17 152 63 246 77 159 234 281 408 319 70 15
199 13 270 -4z"/>
<path d="M4628 1475 c-2 -1 -47 -6 -100 -9 -53 -4 -106 -9 -117 -11 -11 -2
-51 -7 -88 -10 -37 -4 -75 -9 -83 -10 -8 -1 -40 -6 -70 -10 -30 -4 -62 -9 -70
-10 -8 -1 -38 -6 -67 -10 -29 -4 -56 -12 -61 -18 -5 -7 -15 -41 -22 -77 -28
-139 -119 -359 -180 -437 -23 -29 -26 -56 -7 -71 17 -14 91 -25 267 -37 143
-10 196 -16 314 -36 193 -32 216 -34 317 -33 75 2 107 7 145 23 89 40 112 72
155 221 24 84 27 108 24 205 -2 61 -6 117 -9 125 -2 8 -7 39 -10 68 -8 67 -21
88 -71 115 -33 17 -60 22 -152 23 -61 1 -113 1 -115 -1z"/>
</g>
</svg>
